<?xml version="1.0" encoding="utf-8"?>
<svg width="200px" height="200px" viewBox="0 0 490 490" version="1.1" xmlns:xlink="http://www.w3.org/1999/xlink" xmlns="http://www.w3.org/2000/svg">
  <defs>
    <radialGradient gradientUnits="objectBoundingBox" cx="21.078447%" cy="9.163586%" fx="21.078447%" fy="9.163586%" r="112.7289%" gradientTransform="translate(0.21078447,0.09163585),scale(1,0.8660267),rotate(68.07418),translate(-0.21078447,-0.09163585)" id="gradient_1">
      <stop offset="0%" stop-color="#92D5CA" />
      <stop offset="97.11753%" stop-color="#4A8097" />
    </radialGradient>
    <filter filterUnits="userSpaceOnUse" color-interpolation-filters="sRGB" id="filter_1">
      <feFlood flood-opacity="0" result="BackgroundImageFix" />
      <feColorMatrix in="SourceAlpha" type="matrix" values="0 0 0 0 0 0 0 0 0 0 0 0 0 0 0 0 0 0 127 0" />
      <feOffset dx="6" dy="24" />
      <feGaussianBlur stdDeviation="25" />
      <feColorMatrix type="matrix" values="0 0 0 0 0.39215687 0 0 0 0 0.39215687 0 0 0 0 0.39215687 0 0 0 0.49803922 0" />
      <feBlend mode="normal" in2="BackgroundImageFix" result="effect0_dropShadow" />
      <feBlend mode="normal" in="SourceGraphic" in2="effect0_dropShadow" result="shape" />
    </filter>
    <path d="M260.905 52.0121L368.842 156.246Q369.219 156.61 369.584 156.986Q369.948 157.361 370.3 157.749Q370.652 158.137 370.992 158.536Q371.331 158.934 371.657 159.344Q371.983 159.754 372.295 160.174Q372.607 160.595 372.906 161.025Q373.204 161.455 373.489 161.895Q373.773 162.335 374.042 162.783Q374.312 163.232 374.567 163.69Q374.822 164.147 375.062 164.613Q375.301 165.078 375.526 165.551Q375.75 166.024 375.959 166.505Q376.168 166.985 376.361 167.471Q376.554 167.958 376.731 168.451Q376.908 168.944 377.068 169.442Q377.229 169.941 377.373 170.444Q377.518 170.947 377.646 171.455Q377.773 171.963 377.884 172.475Q377.996 172.986 378.09 173.501Q378.184 174.016 378.262 174.534Q378.339 175.052 378.399 175.572Q378.46 176.092 378.503 176.614Q378.546 177.136 378.573 177.659Q378.599 178.182 378.608 178.706Q378.617 179.229 378.609 179.753Q378.601 180.276 378.576 180.799Q378.551 181.322 378.509 181.844Q378.467 182.366 378.407 182.886Q378.348 183.407 378.272 183.925Q378.195 184.443 378.102 184.958Q378.009 185.473 377.899 185.985Q377.789 186.497 377.663 187.005L341.362 332.599Q341.236 333.107 341.092 333.611Q340.949 334.114 340.789 334.613Q340.63 335.112 340.454 335.605Q340.278 336.098 340.086 336.585Q339.894 337.072 339.686 337.553Q339.479 338.034 339.255 338.507Q339.032 338.981 338.793 339.447Q338.554 339.913 338.301 340.371Q338.047 340.829 337.778 341.278Q337.509 341.728 337.226 342.168Q336.943 342.609 336.645 343.04Q336.348 343.47 336.036 343.891Q335.725 344.312 335.4 344.723Q335.075 345.133 334.736 345.533Q334.398 345.933 334.047 346.321Q333.696 346.709 333.332 347.086Q332.968 347.463 332.592 347.827Q332.216 348.192 331.829 348.544Q331.441 348.896 331.042 349.235Q330.643 349.574 330.234 349.9Q329.824 350.226 329.404 350.539Q328.983 350.851 328.553 351.15Q328.123 351.448 327.683 351.732Q327.243 352.016 326.794 352.286Q326.346 352.556 325.888 352.811Q325.431 353.066 324.965 353.305Q324.5 353.545 324.027 353.769Q323.553 353.994 323.073 354.203Q322.593 354.411 322.106 354.604Q321.62 354.797 321.127 354.974Q320.634 355.151 320.136 355.312Q319.637 355.473 319.134 355.617L174.896 396.977Q174.393 397.121 173.885 397.249Q173.377 397.377 172.865 397.488Q172.354 397.599 171.839 397.693Q171.324 397.788 170.806 397.865Q170.288 397.942 169.768 398.003Q169.248 398.063 168.726 398.107Q168.204 398.15 167.681 398.176Q167.158 398.203 166.634 398.212Q166.111 398.221 165.587 398.213Q165.064 398.205 164.541 398.18Q164.018 398.155 163.496 398.112Q162.974 398.07 162.454 398.011Q161.933 397.952 161.415 397.875Q160.897 397.799 160.382 397.706Q159.867 397.613 159.355 397.503Q158.843 397.393 158.335 397.266Q157.827 397.139 157.323 396.996Q156.819 396.853 156.321 396.693Q155.822 396.534 155.329 396.358Q154.835 396.182 154.348 395.99Q153.861 395.798 153.38 395.59Q152.9 395.383 152.426 395.159Q151.953 394.936 151.486 394.697Q151.02 394.458 150.562 394.205Q150.105 393.951 149.655 393.682Q149.206 393.413 148.765 393.13Q148.325 392.847 147.894 392.549Q147.463 392.252 147.042 391.94Q146.621 391.629 146.211 391.304Q145.8 390.979 145.401 390.64Q145.001 390.302 144.613 389.951Q144.224 389.6 143.848 389.236L35.9098 285.002Q35.5331 284.638 35.1686 284.263Q34.804 283.887 34.4519 283.499Q34.0999 283.111 33.7607 282.713Q33.4215 282.314 33.0955 281.904Q32.7695 281.494 32.4571 281.074Q32.1447 280.654 31.8463 280.223Q31.5478 279.793 31.2636 279.353Q30.9793 278.914 30.7097 278.465Q30.44 278.016 30.1851 277.558Q29.9302 277.101 29.6905 276.636Q29.4507 276.17 29.2263 275.697Q29.0019 275.224 28.7931 274.744Q28.5843 274.263 28.3914 273.777Q28.1984 273.29 28.0214 272.797Q27.8445 272.304 27.6838 271.806Q27.5231 271.308 27.3787 270.804Q27.2344 270.301 27.1066 269.793Q26.9788 269.285 26.8677 268.773Q26.7566 268.262 26.6623 267.747Q26.568 267.232 26.4906 266.714Q26.4132 266.196 26.3528 265.676Q26.2924 265.156 26.249 264.634Q26.2056 264.112 26.1794 263.589Q26.1531 263.066 26.144 262.543Q26.1348 262.019 26.1428 261.495Q26.1508 260.972 26.1759 260.449Q26.2011 259.926 26.2433 259.404Q26.2855 258.882 26.3448 258.362Q26.4041 257.841 26.4803 257.323Q26.5566 256.805 26.6498 256.29Q26.7429 255.775 26.8529 255.263Q26.9629 254.751 27.0896 254.243L63.3896 108.649Q63.5162 108.141 63.6595 107.637Q63.8027 107.134 63.9623 106.635Q64.122 106.136 64.2978 105.643Q64.4737 105.15 64.6656 104.663Q64.8575 104.176 65.0653 103.695Q65.273 103.214 65.4964 102.741Q65.7197 102.267 65.9585 101.801Q66.1972 101.335 66.4511 100.877Q66.7049 100.419 66.9736 99.9696Q67.2423 99.5202 67.5256 99.0798Q67.8089 98.6394 68.1064 98.2085Q68.4039 97.7776 68.7154 97.3567Q69.0269 96.9358 69.3519 96.5252Q69.677 96.1147 70.0154 95.7151Q70.3537 95.3154 70.7049 94.9271Q71.0561 94.5387 71.4199 94.162Q71.7836 93.7853 72.1595 93.4208Q72.5354 93.0562 72.923 92.7041Q73.3106 92.3521 73.7095 92.0129Q74.1084 91.6737 74.5182 91.3477Q74.928 91.0217 75.3482 90.7093Q75.7685 90.3969 76.1987 90.0985Q76.6289 89.8 77.0687 89.5158Q77.5085 89.2316 77.9573 88.9619Q78.4062 88.6922 78.8636 88.4373Q79.321 88.1825 79.7865 87.9427Q80.252 87.7029 80.7252 87.4786Q81.1983 87.2542 81.6785 87.0453Q82.1587 86.8366 82.6454 86.6436Q83.1322 86.4506 83.625 86.2737Q84.1179 86.0967 84.6162 85.936Q85.1146 85.7753 85.6179 85.6309L229.856 44.2709Q230.36 44.1265 230.868 43.9987Q231.375 43.871 231.887 43.7599Q232.399 43.6488 232.914 43.5545Q233.429 43.4602 233.947 43.3828Q234.465 43.3054 234.985 43.2449Q235.505 43.1845 236.027 43.1412Q236.549 43.0978 237.072 43.0715Q237.595 43.0453 238.118 43.0361Q238.642 43.027 239.165 43.035Q239.689 43.043 240.212 43.0681Q240.735 43.0932 241.257 43.1355Q241.779 43.1777 242.299 43.237Q242.819 43.2962 243.337 43.3725Q243.855 43.4488 244.371 43.5419Q244.886 43.6351 245.398 43.7451Q245.91 43.8551 246.418 43.9818Q246.926 44.1084 247.43 44.2517Q247.933 44.3949 248.432 44.5545Q248.931 44.7142 249.424 44.89Q249.917 45.0659 250.404 45.2578Q250.891 45.4497 251.372 45.6575Q251.853 45.8652 252.326 46.0886Q252.8 46.312 253.266 46.5507Q253.732 46.7894 254.19 47.0433Q254.648 47.2972 255.097 47.5659Q255.547 47.8346 255.987 48.1178Q256.428 48.4011 256.859 48.6986Q257.289 48.9962 257.71 49.3076Q258.131 49.6191 258.542 49.9442Q258.952 50.2692 259.352 50.6076Q259.752 50.9459 260.14 51.2971Q260.528 51.6484 260.905 52.0121L260.905 52.0121Z" id="path_1" />
    <path d="M19.999 33.5L100.001 33.5Q100.492 33.5 100.982 33.5241Q101.473 33.5482 101.961 33.5963Q102.45 33.6444 102.935 33.7165Q103.421 33.7885 103.903 33.8843Q104.384 33.9801 104.86 34.0993Q105.337 34.2186 105.806 34.3612Q106.276 34.5037 106.738 34.6691Q107.201 34.8345 107.654 35.0223Q108.108 35.2102 108.552 35.4201Q108.995 35.63 109.428 35.8615Q109.861 36.0929 110.283 36.3453Q110.704 36.5977 111.112 36.8704Q111.52 37.1432 111.914 37.4356Q112.309 37.7281 112.688 38.0396Q113.068 38.351 113.432 38.6807Q113.795 39.0104 114.142 39.3576Q114.49 39.7047 114.819 40.0685Q115.149 40.4323 115.46 40.8118Q115.772 41.1913 116.064 41.5856Q116.357 41.9799 116.63 42.3881Q116.902 42.7963 117.155 43.2175Q117.407 43.6386 117.639 44.0715Q117.87 44.5045 118.08 44.9483Q118.29 45.3921 118.478 45.8457Q118.666 46.2993 118.831 46.7615Q118.996 47.2238 119.139 47.6936Q119.281 48.1634 119.401 48.6396Q119.52 49.1159 119.616 49.5974Q119.711 50.0789 119.784 50.5645Q119.856 51.0502 119.904 51.5388Q119.952 52.0273 119.976 52.5177Q120 53.0081 120 53.499L120 114.501Q120 114.992 119.976 115.482Q119.952 115.973 119.904 116.461Q119.856 116.95 119.784 117.436Q119.711 117.921 119.616 118.403Q119.52 118.884 119.401 119.36Q119.281 119.837 119.139 120.306Q118.996 120.776 118.831 121.239Q118.666 121.701 118.478 122.154Q118.29 122.608 118.08 123.052Q117.87 123.496 117.639 123.929Q117.407 124.362 117.155 124.783Q116.902 125.204 116.63 125.612Q116.357 126.02 116.064 126.414Q115.772 126.809 115.46 127.188Q115.149 127.568 114.819 127.932Q114.49 128.295 114.142 128.642Q113.795 128.99 113.432 129.319Q113.068 129.649 112.688 129.96Q112.309 130.272 111.914 130.564Q111.52 130.857 111.112 131.13Q110.704 131.402 110.283 131.655Q109.861 131.907 109.428 132.139Q108.995 132.37 108.552 132.58Q108.108 132.79 107.654 132.978Q107.201 133.166 106.738 133.331Q106.276 133.496 105.806 133.639Q105.337 133.781 104.86 133.901Q104.384 134.02 103.903 134.116Q103.421 134.212 102.935 134.284Q102.45 134.356 101.961 134.404Q101.473 134.452 100.982 134.476Q100.492 134.5 100.001 134.5L48.3627 134.5Q48.0431 134.5 47.7307 134.567Q47.4183 134.635 47.1271 134.766Q46.836 134.898 46.579 135.088Q46.3221 135.278 46.111 135.518L21.0249 164.032Q20.95 164.117 20.8688 164.196Q20.7876 164.276 20.7007 164.349Q20.6138 164.422 20.5216 164.488Q20.4294 164.554 20.3325 164.613Q20.2356 164.672 20.1345 164.723Q20.0334 164.775 19.9287 164.818Q19.824 164.862 19.7163 164.898Q19.6086 164.934 19.4985 164.961Q19.3884 164.988 19.2766 165.007Q19.1647 165.027 19.0518 165.037Q18.9388 165.048 18.8254 165.05Q18.7119 165.052 18.5987 165.045Q18.4854 165.038 18.373 165.023Q18.2605 165.008 18.1495 164.984Q18.0386 164.961 17.9297 164.929Q17.8208 164.897 17.7147 164.857Q17.6085 164.817 17.5057 164.769Q17.4029 164.721 17.304 164.665Q17.205 164.61 17.1106 164.547Q17.0162 164.484 16.9268 164.414Q16.8374 164.344 16.7535 164.268Q16.6697 164.191 16.5918 164.109Q16.5139 164.026 16.4426 163.938Q16.3712 163.85 16.3066 163.757Q16.2421 163.663 16.1848 163.566Q16.1275 163.468 16.0778 163.366Q16.028 163.264 15.9861 163.158Q15.9443 163.053 15.9105 162.944Q15.8767 162.836 15.8511 162.726Q15.8256 162.615 15.8085 162.503Q15.7914 162.391 15.7829 162.278Q15.7743 162.164 15.7743 162.051L15.7742 137.499Q15.7742 137.352 15.7598 137.205Q15.7454 137.058 15.7166 136.914Q15.6879 136.769 15.6451 136.628Q15.6023 136.488 15.546 136.351Q15.4896 136.215 15.4201 136.085Q15.3507 135.955 15.2688 135.833Q15.187 135.71 15.0935 135.597Q15 135.483 14.8959 135.378Q14.7917 135.274 14.6778 135.181Q14.5639 135.087 14.4414 135.005Q14.3189 134.924 14.189 134.854Q14.059 134.785 13.9229 134.728Q13.7868 134.672 13.6458 134.629Q13.5048 134.586 13.3603 134.558Q13.2158 134.529 13.0692 134.515Q12.9226 134.5 12.7752 134.5L7.88612 134.5Q7.69253 134.5 7.49917 134.491Q7.30581 134.481 7.11315 134.462Q6.92049 134.443 6.72899 134.415Q6.53749 134.386 6.34762 134.349Q6.15774 134.311 5.96995 134.264Q5.78216 134.217 5.5969 134.16Q5.41164 134.104 5.22937 134.039Q5.04709 133.974 4.86823 133.9Q4.68938 133.826 4.51437 133.743Q4.33936 133.66 4.16863 133.569Q3.9979 133.478 3.83184 133.378Q3.66579 133.279 3.50483 133.171Q3.34386 133.063 3.18836 132.948Q3.03287 132.833 2.88322 132.71Q2.73357 132.587 2.59013 132.457Q2.44668 132.327 2.30979 132.19Q2.1729 132.053 2.04289 131.91Q1.91288 131.766 1.79007 131.617Q1.66725 131.467 1.55193 131.312Q1.43661 131.156 1.32905 130.995Q1.2215 130.834 1.12197 130.668Q1.02244 130.502 0.931183 130.331Q0.839924 130.161 0.757152 129.986Q0.67438 129.811 0.600295 129.632Q0.52621 129.453 0.460991 129.271Q0.395771 129.088 0.339574 128.903Q0.283377 128.718 0.236337 128.53Q0.189298 128.342 0.15153 128.152Q0.113761 127.963 0.0853553 127.771Q0.0569493 127.58 0.0379738 127.387Q0.0189984 127.194 0.00949918 127.001Q0 126.808 0 126.614L0 53.499Q0 53.0081 0.0240897 52.5177Q0.0481793 52.0273 0.0963006 51.5388Q0.144422 51.0502 0.216459 50.5645Q0.288496 50.0789 0.384275 49.5974Q0.480054 49.1159 0.599345 48.6396Q0.718635 48.1634 0.86115 47.6936Q1.00366 47.2238 1.16906 46.7615Q1.33446 46.2993 1.52233 45.8457Q1.71021 45.3921 1.92012 44.9483Q2.13003 44.5045 2.36146 44.0715Q2.59289 43.6386 2.84529 43.2175Q3.09768 42.7964 3.37044 42.3881Q3.64319 41.9799 3.93565 41.5856Q4.22811 41.1913 4.53956 40.8118Q4.85102 40.4323 5.18072 40.0685Q5.51042 39.7047 5.85757 39.3576Q6.20472 39.0104 6.56849 38.6807Q6.93226 38.351 7.31177 38.0396Q7.69128 37.7281 8.08561 37.4356Q8.47994 37.1432 8.88815 36.8704Q9.29636 36.5977 9.71746 36.3453Q10.1386 36.0929 10.5715 35.8615Q11.0045 35.63 11.4483 35.4201Q11.8921 35.2102 12.3457 35.0223Q12.7993 34.8344 13.2615 34.6691Q13.7238 34.5037 14.1936 34.3612Q14.6634 34.2186 15.1396 34.0993Q15.6159 33.9801 16.0974 33.8843Q16.5789 33.7885 17.0645 33.7165Q17.5502 33.6444 18.0388 33.5963Q18.5273 33.5482 19.0177 33.5241Q19.5081 33.5 19.999 33.5Z" id="path_2" />
    <path d="M117.016 28.1064C128.85 11.1177 148.527 0 170.8 0C206.975 0 236.3 29.3253 236.3 65.5C236.3 87.4688 225.484 106.912 208.888 118.794C203.097 122.94 203.284 146.409 196.3 148.5C190.34 150.285 177.341 131 170.8 131C134.625 131 127.069 114.264 127.069 114.264" id="path_3" />
    <rect width="490" height="490" id="artboard_1" />
    <clipPath id="clip_1">
      <use xlink:href="#artboard_1" clip-rule="evenodd" />
    </clipPath>
    <clipPath id="clip_2">
      <use xlink:href="#path_1" />
    </clipPath>
    <clipPath id="clip_3">
      <use xlink:href="#path_2" />
    </clipPath>
    <clipPath id="clip_4">
      <use xlink:href="#path_3" />
    </clipPath>
  </defs>
  <g id="Artboard-Copy-5" clip-path="url(#clip_1)">
    <use xlink:href="#artboard_1" stroke="none" fill="transparent" />
    <g id="Group" transform="translate(43 25)" artboard="a217ad01-f579-4c06-88d8-ab0662861159">
      <g id="Group">
        <g id="Polygon" filter="url(#filter_1)">
          <use stroke="none" fill="url(#gradient_1)" xlink:href="#path_1" fill-rule="evenodd" />
          <g clip-path="url(#clip_2)">
            <use xlink:href="#path_1" fill="none" stroke="#FFFFFF" stroke-width="14" />
          </g>
        </g>
        <g id="Group-Copy" transform="translate(84.16626 136.00739)">
          <g id="Sy" fill="#FFFFFF" transform="translate(132 19)">
            <path d="M26.9375 31.0781Q29.0156 32.5938 29.2969 35.3438L38.7344 35.3438Q38.6562 31.1875 36.5 28.0312Q34.3438 24.8594 30.4688 23.0938Q26.5938 21.3125 21.4062 21.3125Q16.3125 21.3125 12.3125 23.0781Q8.3125 24.8438 6.03125 28.0156Q3.75 31.1875 3.76562 35.4062Q3.75 40.5469 7.15625 43.625Q10.5625 46.6875 16.4531 48.0938L21.5156 49.3594Q25.3125 50.2656 27.3594 51.5469Q29.4062 52.8125 29.4375 55.1875Q29.4062 57.7344 27.1719 59.3281Q24.9375 60.9062 21.1875 60.9062Q17.3438 60.9062 14.8281 59.1562Q12.3125 57.3906 12.0625 53.8906L2.54688 53.8906Q2.73438 61.4375 7.76562 65.2969Q12.8125 69.1562 21.2969 69.1562Q29.8125 69.1562 34.5781 65.375Q39.3438 61.5938 39.3594 55.2031Q39.3594 51.3125 37.5469 48.6094Q35.75 45.8906 32.5938 44.1719Q29.4531 42.4375 25.4062 41.5156L21.2344 40.5156Q18.2031 39.8125 16 38.5312Q13.8125 37.25 13.8594 34.75Q13.8594 32.5 15.7969 31.0312Q17.7344 29.5469 21.3438 29.5469Q24.8594 29.5469 26.9375 31.0781ZM48.2997 81.2969Q49.9091 81.5938 51.7528 81.5938Q57.1591 81.5938 60.2059 79.0469Q63.2684 76.5 64.7528 72.2656L78.3153 33.5938L68.0653 33.5938L60.7684 59.2344L60.4091 59.2344L53.1747 33.5938L43.0028 33.5938L55.5184 69.5L54.9559 70.9844Q54.0028 73.4375 52.2059 73.7812Q50.4091 74.1406 47.8466 73.3594L45.6591 80.5938Q46.7059 81.0156 48.2997 81.2969Z" />
          </g>
          <g id="Rectangle-2">
            <use stroke="none" fill="#FFFFFF" xlink:href="#path_2" fill-rule="evenodd" />
            <g clip-path="url(#clip_3)">
              <use xlink:href="#path_2" fill="none" stroke="#FFFFFF" stroke-width="16" />
            </g>
          </g>
          <g id="Oval">
            <g clip-path="url(#clip_4)">
              <use xlink:href="#path_3" fill="none" stroke="#FFFFFF" stroke-width="16" stroke-linecap="round" stroke-linejoin="round" />
            </g>
          </g>
          <g id="Co" fill="#5E98A5" transform="translate(15 39)">
            <path d="M35.1562 38.25L45.1094 38.25Q44.4844 32.8594 41.7188 29.0781Q38.9531 25.2969 34.625 23.3125Q30.2969 21.3125 24.9062 21.3125Q18.7656 21.3125 13.8594 24.125Q8.95312 26.9375 6.09375 32.2812Q3.23438 37.6094 3.23438 45.2344Q3.23438 52.8125 6.0625 58.1562Q8.89062 63.5 13.7812 66.3281Q18.6875 69.1406 24.9062 69.1406Q30.8906 69.1406 35.2188 66.7969Q39.5469 64.4531 42.0625 60.6875Q44.5938 56.9062 45.1094 52.6406L35.1562 52.5938Q34.4531 56.3125 31.7188 58.375Q29 60.4375 25.0625 60.4375Q19.7656 60.4375 16.4844 56.5625Q13.2031 52.6875 13.2031 45.2344Q13.2031 37.9531 16.4688 33.9844Q19.7344 30.0156 25.1406 30.0156Q29.1875 30.0156 31.8906 32.2188Q34.5938 34.4062 35.1562 38.25ZM58.6207 66.9219Q62.4801 69.1875 67.7769 69.1875Q73.0738 69.1875 76.9176 66.9219Q80.7769 64.6562 82.8551 60.6094Q84.9488 56.5469 84.9488 51.1875Q84.9488 45.7656 82.8551 41.7188Q80.7769 37.6562 76.9176 35.4062Q73.0738 33.1406 67.7769 33.1406Q62.4801 33.1406 58.6207 35.4062Q54.7769 37.6562 52.6832 41.7188Q50.5894 45.7656 50.5894 51.1875Q50.5894 56.5469 52.6832 60.6094Q54.7769 64.6562 58.6207 66.9219ZM73.2613 58.6875Q71.4019 61.6875 67.8238 61.6875Q64.1519 61.6875 62.2926 58.6875Q60.4332 55.6875 60.4332 51.1094Q60.4332 46.5469 62.2926 43.5312Q64.1519 40.5156 67.8238 40.5156Q71.4019 40.5156 73.2613 43.5312Q75.1207 46.5469 75.1207 51.1094Q75.1207 55.6875 73.2613 58.6875Z" />
          </g>
        </g>
      </g>
    </g>
  </g>
</svg>